HIERARCHY
ROOT hip
{
  OFFSET 0 0 0
  CHANNELS 6 Xposition Yposition Zposition Zrotation Yrotation Xrotation
  JOINT abdomen
  {
    OFFSET 0 20.6881 -0.73152
    CHANNELS 3 Zrotation Xrotation Yrotation
    JOINT chest
    {
      OFFSET 0 11.7043 -0.48768
      CHANNELS 3 Zrotation Xrotation Yrotation
      JOINT neck
      {
        OFFSET 0 22.1894 -2.19456
        CHANNELS 3 Zrotation Xrotation Yrotation
        JOINT head
        {
          OFFSET -0.24384 7.07133 1.2192
          CHANNELS 3 Zrotation Xrotation Yrotation
          JOINT leftEye
          {
            OFFSET 4.14528 8.04674 8.04672
            CHANNELS 3 Zrotation Xrotation Yrotation
            End Site
            {
              OFFSET 1 0 0
            }
          }
          JOINT rightEye
          {
            OFFSET -3.6576 8.04674 8.04672
            CHANNELS 3 Zrotation Xrotation Yrotation
            End Site
            {
              OFFSET 1 0 0
            }
          }
        }
      }
      JOINT rCollar
      {
        OFFSET -2.68224 19.2634 -4.8768
        CHANNELS 3 Zrotation Xrotation Yrotation
        JOINT rShldr
        {
          OFFSET -8.77824 -1.95073 1.46304
          CHANNELS 3 Zrotation Xrotation Yrotation
          JOINT rForeArm
          {
            OFFSET -28.1742 -1.7115 0.48768
            CHANNELS 3 Zrotation Xrotation Yrotation
            JOINT rHand
            {
              OFFSET -22.5879 0.773209 7.07136
              CHANNELS 3 Zrotation Xrotation Yrotation
              JOINT rThumb1
              {
                OFFSET -1.2192 -0.487915 3.41376
                CHANNELS 3 Zrotation Xrotation Yrotation
                JOINT rThumb2
                {
                  OFFSET -3.37035 -0.52449 3.41376
                  CHANNELS 3 Zrotation Xrotation Yrotation
                  End Site
                  {
                    OFFSET -1.78271 -1.18214 1.43049
                  }
                }
              }
              JOINT rIndex1
              {
                OFFSET -7.75947 0.938293 5.60832
                CHANNELS 3 Zrotation Xrotation Yrotation
                JOINT rIndex2
                {
                  OFFSET -2.54057 -0.884171 1.56538
                  CHANNELS 3 Zrotation Xrotation Yrotation
                  End Site
                  {
                    OFFSET -1.62519 -0.234802 1.16502
                  }
                }
              }
              JOINT rMid1
              {
                OFFSET -8.24714 1.18213 3.41376
                CHANNELS 3 Zrotation Xrotation Yrotation
                JOINT rMid2
                {
                  OFFSET -3.10165 -0.590103 1.0647
                  CHANNELS 3 Zrotation Xrotation Yrotation
                  End Site
                  {
                    OFFSET -2.48547 -0.328903 0.83742
                  }
                }
              }
              JOINT rRing1
              {
                OFFSET -8.82822 0.546677 1.51678
                CHANNELS 3 Zrotation Xrotation Yrotation
                JOINT rRing2
                {
                  OFFSET -2.60934 -0.819778 -0.0198488
                  CHANNELS 3 Zrotation Xrotation Yrotation
                  End Site
                  {
                    OFFSET -2.33842 -0.294052 0.168128
                  }
                }
              }
              JOINT rPinky1
              {
                OFFSET -8.27202 -0.0477905 -0.4584
                CHANNELS 3 Zrotation Xrotation Yrotation
                JOINT rPinky2
                {
                  OFFSET -1.82734 -0.647385 -0.700984
                  CHANNELS 3 Zrotation Xrotation Yrotation
                  End Site
                  {
                    OFFSET -1.69225 -0.51767 -0.607171
                  }
                }
              }
            }
          }
        }
      }
      JOINT lCollar
      {
        OFFSET 2.68224 19.2634 -4.8768
        CHANNELS 3 Zrotation Xrotation Yrotation
        JOINT lShldr
        {
          OFFSET 8.77824 -1.95073 1.46304
          CHANNELS 3 Zrotation Xrotation Yrotation
          JOINT lForeArm
          {
            OFFSET 28.1742 -1.7115 0.48768
            CHANNELS 3 Zrotation Xrotation Yrotation
            JOINT lHand
            {
              OFFSET 22.5879 0.773209 7.07136
              CHANNELS 3 Zrotation Xrotation Yrotation
              JOINT lThumb1
              {
                OFFSET 1.2192 -0.487915 3.41376
                CHANNELS 3 Zrotation Xrotation Yrotation
                JOINT lThumb2
                {
                  OFFSET 3.37035 -0.52449 3.41376
                  CHANNELS 3 Zrotation Xrotation Yrotation
                  End Site
                  {
                    OFFSET 1.78271 -1.18214 1.43049
                  }
                }
              }
              JOINT lIndex1
              {
                OFFSET 7.75947 0.938293 5.60832
                CHANNELS 3 Zrotation Xrotation Yrotation
                JOINT lIndex2
                {
                  OFFSET 2.54057 -0.884171 1.56538
                  CHANNELS 3 Zrotation Xrotation Yrotation
                  End Site
                  {
                    OFFSET 1.62519 -0.234802 1.16502
                  }
                }
              }
              JOINT lMid1
              {
                OFFSET 8.24714 1.18213 3.41376
                CHANNELS 3 Zrotation Xrotation Yrotation
                JOINT lMid2
                {
                  OFFSET 3.10165 -0.590103 1.0647
                  CHANNELS 3 Zrotation Xrotation Yrotation
                  End Site
                  {
                    OFFSET 2.48547 -0.328903 0.83742
                  }
                }
              }
              JOINT lRing1
              {
                OFFSET 8.82822 0.546677 1.51678
                CHANNELS 3 Zrotation Xrotation Yrotation
                JOINT lRing2
                {
                  OFFSET 2.60934 -0.819778 -0.0198488
                  CHANNELS 3 Zrotation Xrotation Yrotation
                  End Site
                  {
                    OFFSET 2.33842 -0.294052 0.168128
                  }
                }
              }
              JOINT lPinky1
              {
                OFFSET 8.27202 -0.0477905 -0.4584
                CHANNELS 3 Zrotation Xrotation Yrotation
                JOINT lPinky2
                {
                  OFFSET 1.82734 -0.647385 -0.700984
                  CHANNELS 3 Zrotation Xrotation Yrotation
                  End Site
                  {
                    OFFSET 1.69225 -0.51767 -0.607171
                  }
                }
              }
            }
          }
        }
      }
    }
  }
  JOINT rButtock
  {
    OFFSET -8.77824 4.35084 1.2192
    CHANNELS 3 Zrotation Xrotation Yrotation
    JOINT rThigh
    {
      OFFSET 0 -1.70687 -2.19456
      CHANNELS 3 Zrotation Xrotation Yrotation
      JOINT rShin
      {
        OFFSET 0 -36.8199 0.73152
        CHANNELS 3 Zrotation Xrotation Yrotation
        JOINT rFoot
        {
          OFFSET 0.73152 -45.1104 -5.12064
          CHANNELS 3 Zrotation Xrotation Yrotation
          End Site
          {
            OFFSET -1.1221 -3.69964 12.103
          }
        }
      }
    }
  }
  JOINT lButtock
  {
    OFFSET 8.77824 4.35084 1.2192
    CHANNELS 3 Zrotation Xrotation Yrotation
    JOINT lThigh
    {
      OFFSET 0 -1.70687 -2.19456
      CHANNELS 3 Zrotation Xrotation Yrotation
      JOINT lShin
      {
        OFFSET 0 -36.8199 0.73152
        CHANNELS 3 Zrotation Xrotation Yrotation
        JOINT lFoot
        {
          OFFSET -0.73152 -45.1104 -5.12064
          CHANNELS 3 Zrotation Xrotation Yrotation
          End Site
          {
            OFFSET 1.1221 -3.69964 12.103
          }
        }
      }
    }
  }
}
MOTION
Frames:	7
Frame Time:	0.00833333
48.9611 80.874 84.588 -178.336 -2.2522 -177.882 2.88943 9.71355 3.10004 -0.511276 -11.1501 0.967473 -6.12374 9.09661 -3.80405 8.61996 -28.1918 -4.82858 -0.0 0.0 0.0 -0.0 0.0 0.0 1.26173e-14 -5.06245e-15 -7.86263e-14 75.9194 49.6057 3.32544 -18.0775 -10.7701 34.1946 -0.330168 16.1218 2.3283 -4.20777e-10 1.63791e-09 -5.60338e-10 -7.36906e-10 2.82963e-09 -9.62719e-10 -4.20776e-10 1.63791e-09 -5.60344e-10 7.73091 5.47488 0.417314 -4.20777e-10 1.63791e-09 -5.60335e-10 2.90554 0.965183 0.102902 -4.20768e-10 1.63791e-09 -5.6034e-10 10.2786 0.731801 0.0259123 -4.20785e-10 1.63791e-09 -5.60334e-10 2.22167 -0.733487 -0.20892 1.24952e-14 -5.06223e-15 -7.89645e-14 -81.1338 38.078 2.24897 19.4581 -12.3451 -37.3804 0.131246 10.2796 -1.46055 -7.0735e-11 -2.58655e-10 4.14071e-11 -1.21476e-10 -4.46982e-10 7.16791e-11 -7.07394e-11 -2.58657e-10 4.14228e-11 -7.73091 5.47488 -0.417314 -7.07349e-11 -2.58657e-10 4.14107e-11 -2.90554 0.965183 -0.102902 -7.07455e-11 -2.58654e-10 4.14151e-11 -10.2786 0.731801 -0.0259123 -7.07313e-11 -2.5865e-10 4.14153e-11 -2.22167 -0.733487 0.20892 -2.03217e-16 0.0 -3.88251e-19 10.873 -24.8683 2.53854 -0.240995 40.7427 0.962188 -7.98939 -15.0071 -21.6305 2.03217e-16 0.0 3.88251e-19 -0.394196 -26.3735 -7.83992 0.361398 42.0581 -0.981197 5.40984 -20.1301 11.5108
48.9195 81.1858 84.4032 -178.364 -2.0749 -178.066 2.83237 9.57307 3.14126 -0.545144 -11.1122 0.977498 -6.05457 9.0502 -3.76028 8.46683 -27.6304 -4.80049 -0.0 0.0 0.0 -0.0 0.0 0.0 -1.97436e-14 -3.30121e-14 -7.34199e-14 76.0834 49.9649 3.26763 -18.1729 -10.8738 34.4091 -0.311079 15.6649 2.25881 -2.3759e-10 9.92426e-10 -2.51643e-10 -4.16179e-10 1.7151e-09 -4.31361e-10 -2.37588e-10 9.92429e-10 -2.51648e-10 7.73091 5.47488 0.417314 -2.37591e-10 9.92426e-10 -2.5164e-10 2.90554 0.965183 0.102902 -2.37581e-10 9.92426e-10 -2.51644e-10 10.2786 0.731801 0.0259123 -2.37597e-10 9.92427e-10 -2.51637e-10 2.22167 -0.733487 -0.20892 -1.97941e-14 -3.3012e-14 -7.37212e-14 -81.2171 38.0048 2.39633 19.4739 -12.364 -37.4181 0.121364 9.89467 -1.4047 1.47234e-10 2.39292e-10 2.25719e-10 2.56252e-10 4.13371e-10 3.88452e-10 1.47227e-10 2.39288e-10 2.25734e-10 -7.73091 5.47488 -0.417314 1.47232e-10 2.39285e-10 2.25718e-10 -2.90554 0.965183 -0.102902 1.47226e-10 2.3929e-10 2.25725e-10 -10.2786 0.731801 -0.0259123 1.4724e-10 2.39293e-10 2.25724e-10 -2.22167 -0.733487 0.20892 -2.03217e-16 0.0 -3.88251e-19 10.8516 -23.9756 2.83521 -0.218797 39.6858 0.919669 -7.75493 -14.5525 -21.5876 2.03217e-16 0.0 3.88251e-19 -0.444584 -25.3764 -8.00529 0.338291 40.8791 -0.948024 5.40327 -19.5835 11.7253
48.9024 81.496 84.1882 -178.362 -1.8419 -178.272 2.77728 9.43076 3.19932 -0.580767 -11.0811 0.992172 -5.9779 8.99252 -3.71398 8.30439 -27.0474 -4.77349 -0.0 0.0 0.0 -0.0 0.0 0.0 -5.4612e-14 -5.59416e-14 -6.18306e-14 76.3033 50.2927 3.15387 -18.2579 -10.9669 34.601 -0.294009 15.2484 2.19566 -2.06213e-11 2.46603e-10 9.38151e-11 -3.6424e-11 4.27607e-10 1.62974e-10 -2.06188e-11 2.4661e-10 9.38115e-11 7.73091 5.47488 0.417314 -2.06217e-11 2.46605e-10 9.38184e-11 2.90554 0.965183 0.102902 -2.06129e-11 2.46604e-10 9.38156e-11 10.2786 0.731801 0.0259123 -2.06279e-11 2.46601e-10 9.3823e-11 2.22167 -0.733487 -0.20892 -5.45939e-14 -5.59417e-14 -6.20934e-14 -81.3122 37.9015 2.56838 19.4785 -12.3696 -37.4291 0.112369 9.52398 -1.35107 3.72867e-10 7.60507e-10 4.11914e-10 6.47198e-10 1.31393e-09 7.08448e-10 3.72857e-10 7.60501e-10 4.11929e-10 -7.73091 5.47488 -0.417314 3.72863e-10 7.60496e-10 4.11909e-10 -2.90554 0.965183 -0.102902 3.72862e-10 7.60502e-10 4.11918e-10 -10.2786 0.731801 -0.0259123 3.72875e-10 7.60505e-10 4.11914e-10 -2.22167 -0.733487 0.20892 -2.03217e-16 0.0 -3.88251e-19 10.8549 -23.0715 3.21038 -0.196789 38.6111 0.87762 -7.52875 -14.1 -21.5697 2.03217e-16 0.0 3.88251e-19 -0.485836 -24.3628 -8.16258 0.31656 39.6763 -0.915566 5.3953 -19.0373 11.9471
48.8856 81.8019 83.9923 -178.422 -1.5285 -178.397 2.73105 9.23591 3.28295 -0.619775 -11.0378 1.01375 -5.92685 8.97971 -3.66397 8.21135 -26.5035 -4.72444 -0.0 0.0 0.0 -0.0 0.0 0.0 -7.61828e-14 -6.8406e-14 -5.07398e-14 76.5981 50.5761 2.96318 -18.3295 -11.0455 34.7638 -0.278172 14.8457 2.1349 1.19541e-10 -2.07059e-10 3.04405e-10 2.0886e-10 -3.55538e-10 5.25169e-10 1.19544e-10 -2.0705e-10 3.04401e-10 7.73091 5.47488 0.417314 1.19541e-10 -2.07055e-10 3.04408e-10 2.90554 0.965183 0.102902 1.19549e-10 -2.07058e-10 3.04406e-10 10.2786 0.731801 0.0259123 1.19535e-10 -2.07062e-10 3.04414e-10 2.22167 -0.733487 -0.20892 -7.6141e-14 -6.84064e-14 -5.09883e-14 -81.4301 37.7342 2.76871 19.4628 -12.3508 -37.3913 0.105086 9.20603 -1.30519 4.93737e-10 1.03762e-09 5.08256e-10 8.56475e-10 1.79258e-09 8.73977e-10 4.93725e-10 1.03761e-09 5.08272e-10 -7.73091 5.47488 -0.417314 4.93731e-10 1.03761e-09 5.08249e-10 -2.90554 0.965183 -0.102902 4.93733e-10 1.03761e-09 5.08258e-10 -10.2786 0.731801 -0.0259123 4.93745e-10 1.03762e-09 5.08253e-10 -2.22167 -0.733487 0.20892 -2.03217e-16 0.0 -3.88251e-19 10.888 -22.1505 3.65363 -0.1744 37.5066 0.83598 -7.31935 -13.6928 -21.5623 2.03217e-16 0.0 3.88251e-19 -0.518659 -23.3346 -8.33526 0.295745 38.4457 -0.885296 5.42478 -18.544 12.2416
48.8535 82.0972 83.7966 -178.5 -1.1946 -178.486 2.70781 8.97979 3.41049 -0.673792 -10.986 1.04539 -5.90774 9.04331 -3.61115 8.21209 -26.0376 -4.64886 -0.0 0.0 0.0 -0.0 0.0 0.0 -8.17638e-14 -6.4837e-14 -3.93143e-14 77.0012 50.8022 2.66504 -18.3919 -11.1141 34.906 -0.263537 14.4577 2.07664 1.65695e-10 -2.55691e-10 3.31827e-10 2.89306e-10 -4.39312e-10 5.72008e-10 1.65698e-10 -2.55684e-10 3.31823e-10 7.73091 5.47488 0.417314 1.65695e-10 -2.55687e-10 3.3183e-10 2.90554 0.965183 0.102902 1.65702e-10 -2.55692e-10 3.3183e-10 10.2786 0.731801 0.0259123 1.65687e-10 -2.55695e-10 3.31838e-10 2.22167 -0.733487 -0.20892 -8.17718e-14 -6.48378e-14 -3.95884e-14 -81.5798 37.4715 3.00587 19.4214 -12.3012 -37.2927 0.099275 8.94569 -1.26768 4.71112e-10 9.77137e-10 4.84887e-10 8.16852e-10 1.68767e-09 8.33756e-10 4.71101e-10 9.77132e-10 4.84904e-10 -7.73091 5.47488 -0.417314 4.71108e-10 9.77126e-10 4.84881e-10 -2.90554 0.965183 -0.102902 4.71108e-10 9.77132e-10 4.84887e-10 -10.2786 0.731801 -0.0259123 4.7112e-10 9.77133e-10 4.8488e-10 -2.22167 -0.733487 0.20892 -2.03217e-16 0.0 -3.88251e-19 10.9713 -21.2055 4.19341 -0.151828 36.3707 0.795013 -7.13613 -13.3659 -21.5562 2.03217e-16 0.0 3.88251e-19 -0.522934 -22.289 -8.5061 0.275538 37.1873 -0.857801 5.5049 -18.1283 12.6296
48.8496 82.4096 83.5875 -178.485 -0.8268 -178.624 2.70082 8.68788 3.57185 -0.73826 -10.9328 1.08503 -5.90394 9.14788 -3.55574 8.26299 -25.6097 -4.5586 -0.0 0.0 0.0 -0.0 0.0 0.0 -7.92768e-14 -4.95107e-14 -2.47735e-14 77.4946 50.9802 2.27769 -18.4453 -11.1734 35.0277 -0.25016 14.0959 2.02246 1.72725e-10 -1.11362e-10 2.68462e-10 3.01036e-10 -1.89745e-10 4.62392e-10 1.72727e-10 -1.11357e-10 2.68458e-10 7.73091 5.47488 0.417314 1.72725e-10 -1.11356e-10 2.68466e-10 2.90554 0.965183 0.102902 1.7273e-10 -1.11364e-10 2.68467e-10 10.2786 0.731801 0.0259123 1.72715e-10 -1.11365e-10 2.68475e-10 2.22167 -0.733487 -0.20892 -7.93803e-14 -4.9512e-14 -2.50966e-14 -81.7509 37.1388 3.27399 19.3597 -12.2273 -37.1472 0.0943365 8.72426 -1.23579 3.67872e-10 7.29051e-10 3.92531e-10 6.37356e-10 1.25847e-09 6.74964e-10 3.67862e-10 7.29048e-10 3.92551e-10 -7.73091 5.47488 -0.417314 3.6787e-10 7.29045e-10 3.92527e-10 -2.90554 0.965183 -0.102902 3.67866e-10 7.29049e-10 3.92529e-10 -10.2786 0.731801 -0.0259123 3.67878e-10 7.29049e-10 3.9252e-10 -2.22167 -0.733487 0.20892 -2.03217e-16 0.0 -3.88251e-19 11.0867 -20.2407 4.82228 -0.129324 35.2092 0.754652 -6.9717 -13.0886 -21.5602 2.03217e-16 0.0 3.88251e-19 -0.505152 -21.2262 -8.67096 0.256089 35.9031 -0.832107 5.61317 -17.7583 13.0745
48.85 82.723 83.3867 -178.472 -0.4322 -178.743 2.68556 8.36074 3.73311 -0.790571 -10.8648 1.12709 -5.91416 9.24902 -3.49545 8.33992 -25.1621 -4.4554 -0.0 0.0 0.0 -0.0 0.0 0.0 -6.88382e-14 -3.17485e-14 -1.10776e-14 78.0193 51.1305 1.85383 -18.4811 -11.2134 35.109 -0.23765 13.7497 1.97075 1.38172e-10 1.31027e-10 1.53697e-10 2.40285e-10 2.28873e-10 2.64383e-10 1.38175e-10 1.31027e-10 1.53692e-10 7.73091 5.47488 0.417314 1.38172e-10 1.31033e-10 1.53701e-10 2.90554 0.965183 0.102902 1.38176e-10 1.31023e-10 1.53703e-10 10.2786 0.731801 0.0259123 1.38161e-10 1.31024e-10 1.5371e-10 2.22167 -0.733487 -0.20892 -6.90386e-14 -3.17503e-14 -1.14495e-14 -81.926 36.787 3.55534 19.2852 -12.1384 -36.9718 0.0903856 8.54483 -1.20997 2.24001e-10 3.91235e-10 2.60327e-10 3.87485e-10 6.74253e-10 4.47603e-10 2.23993e-10 3.91234e-10 2.60348e-10 -7.73091 5.47488 -0.417314 2.24001e-10 3.91234e-10 2.60325e-10 -2.90554 0.965183 -0.102902 2.23993e-10 3.91235e-10 2.60324e-10 -10.2786 0.731801 -0.0259123 2.24006e-10 3.91235e-10 2.60312e-10 -2.22167 -0.733487 0.20892 -2.03217e-16 0.0 -3.88251e-19 11.1866 -19.2679 5.47768 -0.106475 34.0213 0.714395 -6.80964 -12.8051 -21.5871 2.03217e-16 0.0 3.88251e-19 -0.502171 -20.1528 -8.87152 0.23758 34.5911 -0.807323 5.73387 -17.4016 13.5553
